<svg xmlns="http://www.w3.org/2000/svg" viewBox="0 0 240 240" aria-hidden="true">
  <rect width="240" height="240" rx="54" fill="#FF0000"/>
  <path fill="#fff" d="M196.7 78.3c-1.8-6.9-7.2-12.2-14.1-14.1C170.1 60.8 120 60.8 120 60.8s-50.1 0-62.6 3.4c-6.9 1.9-12.3 7.2-14.1 14.1C40 90.8 40 116.9 40 116.9s0 26.2 3.3 38.6c1.8 6.9 7.2 12.2 14.1 14.1C69.9 173 120 173 120 173s50.1 0 62.6-3.4c6.9-1.9 12.3-7.2 14.1-14.1 3.3-12.4 3.3-38.6 3.3-38.6s0-26.1-3.3-38.6Z"/>
  <path fill="#FF0000" d="m103.7 141.1 41.8-24.2-41.8-24.2v48.4Z"/>
</svg>
